<svg version="1.1" id="Layer_1" xmlns="http://www.w3.org/2000/svg" xmlns:xlink="http://www.w3.org/1999/xlink" x="0px" y="0px"
	 width="100%" viewBox="0 0 500 500" enable-background="new 0 0 500 500" xml:space="preserve">
<path fill="#5170FF" opacity="1.000000" stroke="none" 
	d="
M1.000001,269.000000 
	C1.000000,256.979095 1.000000,244.958206 1.331483,232.224823 
	C5.875496,184.898895 20.708176,142.085403 48.678326,104.388359 
	C90.207207,48.417404 145.402420,14.538277 214.504471,3.811398 
	C220.666641,2.854829 226.834686,1.936232 233.000000,1.000000 
	C245.020889,1.000000 257.041779,1.000000 269.747253,1.348382 
	C279.499359,2.916403 288.640961,3.739176 297.623047,5.416315 
	C401.545929,24.820848 482.735352,109.322723 498.155396,213.968307 
	C499.138580,220.640381 500.053375,227.322540 501.000000,234.000000 
	C501.000000,246.020889 501.000000,258.041779 500.652405,270.748596 
	C497.026123,305.096741 488.542969,337.337982 472.275146,367.087311 
	C432.010864,440.719330 370.207611,484.306396 287.452301,498.192566 
	C281.641449,499.167633 275.817749,500.065979 270.000000,501.000000 
	C257.645782,501.000000 245.291550,501.000000 232.235535,500.665466 
	C201.950424,497.657928 173.369492,490.949036 146.576614,477.932068 
	C66.383781,438.971344 18.711636,375.481812 3.782614,287.519196 
	C2.738281,281.365936 1.922214,275.173981 1.000001,269.000000 
M113.399506,184.851135 
	C96.125061,225.763397 106.217819,261.099182 135.593140,292.407013 
	C130.450607,299.894745 125.432831,307.149902 120.470749,314.442902 
	C116.927162,319.651093 117.375061,321.361115 123.391281,323.632233 
	C136.487320,328.576019 149.905045,328.461426 161.070038,320.167725 
	C168.255188,314.830383 173.798447,314.495880 181.332809,317.622375 
	C184.690689,319.015808 187.313751,320.270752 189.423904,323.383636 
	C198.261353,336.420441 209.696289,346.764343 223.497925,354.335327 
	C255.866150,372.091156 289.477478,374.512817 324.162079,361.982422 
	C326.442932,361.158447 327.795135,361.286682 329.743195,363.083588 
	C342.624420,374.964996 357.698181,375.884064 373.550629,370.816101 
	C379.565308,368.893280 379.913391,366.831726 376.378998,361.639893 
	C371.343353,354.242737 366.274994,346.867798 361.171875,339.412170 
	C362.259705,338.269501 363.183472,337.323608 364.080688,336.353241 
	C385.023254,313.702240 395.586212,287.399414 390.400696,256.389343 
	C384.137238,218.933121 361.353668,194.187805 327.082672,180.211426 
	C316.162659,175.758026 307.931274,170.045700 299.943726,161.286316 
	C268.856628,127.195290 229.545135,117.299072 185.350952,127.661095 
	C153.064438,135.231171 128.694305,154.035263 113.399506,184.851135 
z"/>




<path fill="#030408" opacity="1.000000" stroke="none" 
	d="
M113.585396,184.523010 
	C128.694305,154.035263 153.064438,135.231171 185.350952,127.661095 
	C229.545135,117.299072 268.856628,127.195290 299.943726,161.286316 
	C307.931274,170.045700 316.162659,175.758026 327.082672,180.211426 
	C361.353668,194.187805 384.137238,218.933121 390.400696,256.389343 
	C395.586212,287.399414 385.023254,313.702240 364.080688,336.353241 
	C363.183472,337.323608 362.259705,338.269501 361.171875,339.412170 
	C366.274994,346.867798 371.343353,354.242737 376.378998,361.639893 
	C379.913391,366.831726 379.565308,368.893280 373.550629,370.816101 
	C357.698181,375.884064 342.624420,374.964996 329.743195,363.083588 
	C327.795135,361.286682 326.442932,361.158447 324.162079,361.982422 
	C289.477478,374.512817 255.866150,372.091156 223.497925,354.335327 
	C209.696289,346.764343 198.261353,336.420441 189.423904,323.383636 
	C187.313751,320.270752 184.690689,319.015808 181.332809,317.622375 
	C173.798447,314.495880 168.255188,314.830383 161.070038,320.167725 
	C149.905045,328.461426 136.487320,328.576019 123.391281,323.632233 
	C117.375061,321.361115 116.927162,319.651093 120.470749,314.442902 
	C125.432831,307.149902 130.450607,299.894745 135.593140,292.407013 
	C106.217819,261.099182 96.125061,225.763397 113.585396,184.523010 
M315.997406,210.805725 
	C311.231018,182.091583 295.333130,160.871338 270.738556,146.422729 
	C242.419846,129.786346 211.967911,126.696373 180.708908,136.612061 
	C151.623413,145.838287 129.870667,164.087570 118.219604,192.765350 
	C105.330818,224.489655 114.273918,260.697968 140.494644,286.067902 
	C145.629684,291.036316 145.642517,291.298248 141.511002,297.255188 
	C137.016815,303.735077 132.547119,310.231934 127.975784,316.853119 
	C140.859177,321.692627 156.106720,317.864655 163.871811,307.925751 
	C166.204208,304.940399 168.235977,304.832611 171.520905,306.166779 
	C202.140671,318.602814 232.583282,317.991394 262.529633,303.997040 
	C299.982605,286.494690 320.788055,250.381973 315.997406,210.805725 
M382.796234,255.014832 
	C374.692993,218.267502 350.934052,196.249161 315.581451,183.276413 
	C316.576904,185.843781 317.083771,187.178070 317.610199,188.504562 
	C325.565521,208.550629 327.228424,229.099319 320.255646,249.555984 
	C305.832733,291.869873 274.331635,313.890167 231.560043,320.867126 
	C220.783707,322.624969 209.476791,321.130249 197.054779,321.130249 
	C199.262512,323.912506 200.542023,325.768005 202.059891,327.402069 
	C233.084122,360.801422 282.038544,371.459900 324.349823,353.903198 
	C328.362061,352.238342 330.788422,352.546021 333.637787,356.207245 
	C341.017090,365.689240 358.563141,369.316803 368.714661,363.787170 
	C363.882111,356.796875 359.147003,349.772858 354.213715,342.890869 
	C351.998871,339.801117 351.964355,337.477417 354.898254,334.694733 
	C377.567566,313.193756 387.677368,287.156982 382.796234,255.014832 
M197.877243,321.545197 
	C197.710617,321.540222 197.544006,321.535217 197.377380,321.530243 
	C197.458313,321.611206 197.539246,321.692169 197.877243,321.545197 
z"/>
<path fill="#5170FE" opacity="1.000000" stroke="none" 
	d="
M316.038330,211.246307 
	C320.788055,250.381973 299.982605,286.494690 262.529633,303.997040 
	C232.583282,317.991394 202.140671,318.602814 171.520905,306.166779 
	C168.235977,304.832611 166.204208,304.940399 163.871811,307.925751 
	C156.106720,317.864655 140.859177,321.692627 127.975784,316.853119 
	C132.547119,310.231934 137.016815,303.735077 141.511002,297.255188 
	C145.642517,291.298248 145.629684,291.036316 140.494644,286.067902 
	C114.273918,260.697968 105.330818,224.489655 118.219604,192.765350 
	C129.870667,164.087570 151.623413,145.838287 180.708908,136.612061 
	C211.967911,126.696373 242.419846,129.786346 270.738556,146.422729 
	C295.333130,160.871338 311.231018,182.091583 316.038330,211.246307 
M168.319443,213.655594 
	C167.219009,214.372116 165.955780,214.925491 165.046112,215.833206 
	C160.938034,219.932419 160.194611,227.420654 163.275330,232.467270 
	C165.954742,236.856552 171.667816,238.957626 176.765930,237.428650 
	C182.334549,235.758591 185.369736,230.953049 185.090973,224.247818 
	C184.726913,215.491348 178.698349,211.393158 168.319443,213.655594 
M251.789078,237.069580 
	C258.223419,238.721542 262.916870,237.369690 265.976624,232.983109 
	C268.895142,228.799011 268.872620,221.755203 265.926941,217.440308 
	C263.179810,213.416275 258.320251,211.685165 253.178696,213.004761 
	C248.313110,214.253540 245.585114,217.543564 244.763092,222.396591 
	C243.724045,228.530930 245.410126,233.548553 251.789078,237.069580 
M224.105240,233.452103 
	C228.500305,225.716492 226.917664,217.088364 220.522644,213.920776 
	C214.973892,211.172348 208.266296,212.813644 205.061050,217.704086 
	C201.514313,223.115570 202.414078,230.939713 207.052444,235.020798 
	C211.820251,239.215775 217.883957,238.855896 224.105240,233.452103 
z"/>
<path fill="#516FFE" opacity="1.000000" stroke="none" 
	d="
M382.861481,255.443298 
	C387.677368,287.156982 377.567566,313.193756 354.898254,334.694733 
	C351.964355,337.477417 351.998871,339.801117 354.213715,342.890869 
	C359.147003,349.772858 363.882111,356.796875 368.714661,363.787170 
	C358.563141,369.316803 341.017090,365.689240 333.637787,356.207245 
	C330.788422,352.546021 328.362061,352.238342 324.349823,353.903198 
	C282.038544,371.459900 233.084122,360.801422 202.059891,327.402069 
	C200.542023,325.768005 199.262512,323.912506 197.054779,321.130249 
	C209.476791,321.130249 220.783707,322.624969 231.560043,320.867126 
	C274.331635,313.890167 305.832733,291.869873 320.255646,249.555984 
	C327.228424,229.099319 325.565521,208.550629 317.610199,188.504562 
	C317.083771,187.178070 316.576904,185.843781 315.581451,183.276413 
	C350.934052,196.249161 374.692993,218.267502 382.861481,255.443298 
z"/>
<path fill="#516FFE" opacity="1.000000" stroke="none" 
	d="
M197.748718,321.659149 
	C197.539246,321.692169 197.458313,321.611206 197.377380,321.530212 
	C197.544006,321.535217 197.710617,321.540222 197.748718,321.659149 
z"/>
<path fill="#020206" opacity="1.000000" stroke="none" 
	d="
M168.657898,213.481171 
	C178.698349,211.393158 184.726913,215.491348 185.090973,224.247818 
	C185.369736,230.953049 182.334549,235.758591 176.765930,237.428650 
	C171.667816,238.957626 165.954742,236.856552 163.275330,232.467270 
	C160.194611,227.420654 160.938034,219.932419 165.046112,215.833206 
	C165.955780,214.925491 167.219009,214.372116 168.657898,213.481171 
z"/>
<path fill="#020205" opacity="1.000000" stroke="none" 
	d="
M251.423126,236.933319 
	C245.410126,233.548553 243.724045,228.530930 244.763092,222.396591 
	C245.585114,217.543564 248.313110,214.253540 253.178696,213.004761 
	C258.320251,211.685165 263.179810,213.416275 265.926941,217.440308 
	C268.872620,221.755203 268.895142,228.799011 265.976624,232.983109 
	C262.916870,237.369690 258.223419,238.721542 251.423126,236.933319 
z"/>
<path fill="#020205" opacity="1.000000" stroke="none" 
	d="
M223.867767,233.744507 
	C217.883957,238.855896 211.820251,239.215775 207.052444,235.020798 
	C202.414078,230.939713 201.514313,223.115570 205.061050,217.704086 
	C208.266296,212.813644 214.973892,211.172348 220.522644,213.920776 
	C226.917664,217.088364 228.500305,225.716492 223.867767,233.744507 
z"/>
</svg>